<svg xmlns="http://www.w3.org/2000/svg" width="11.848" height="7.185" viewBox="0 0 11.848 7.185">
  <g id="Grupo_414" data-name="Grupo 414" transform="translate(0.507 0.504)">
    <g id="Grupo_48" data-name="Grupo 48">
      <path id="Caminho_21" data-name="Caminho 21" d="M10.841.865a1.133,1.133,0,0,1-.361.57Q8.239,3.67,6,5.91a.748.748,0,0,1-.827.22.885.885,0,0,1-.316-.2Q2.551,3.626.249,1.318a.735.735,0,0,1-.2-.824A.722.722,0,0,1,.7,0a.763.763,0,0,1,.636.253Q1.864.79,2.4,1.32L5.33,4.254a.667.667,0,0,0,.119.111.5.5,0,0,1,.064-.11q1.993-2,3.988-3.99a.757.757,0,0,1,.808-.227.721.721,0,0,1,.494.5l.038.119Z" transform="translate(0 0)" fill="#041f9f" stroke="#041f9f" stroke-width="1"/>
    </g>
  </g>
</svg>
