<svg xmlns="http://www.w3.org/2000/svg" width="23.978" height="14.427" viewBox="0 0 23.978 14.427">
  <path id="check-all-svgrepo-com" d="M15.64,5.254a1.362,1.362,0,0,1,2.052.017,1.813,1.813,0,0,1,.054,2.308L9.891,18.632a1.366,1.366,0,0,1-2.126.044l-5.21-5.861a1.8,1.8,0,0,1-.424-1.626A1.58,1.58,0,0,1,3.2,9.991a1.374,1.374,0,0,1,1.446.477L8.765,15.1,15.6,5.3a.542.542,0,0,1,.039-.049ZM13.829,16.639l1.811,2.038a1.366,1.366,0,0,0,2.124-.044L25.624,7.58a1.807,1.807,0,0,0,.382-1.64,1.565,1.565,0,0,0-1.1-1.163,1.382,1.382,0,0,0-1.433.526l-6.838,9.8-.955-1.076-1.857,2.611Z" transform="translate(-2.085 -4.736)" fill="#a8cf45"/>
</svg>
