<svg xmlns="http://www.w3.org/2000/svg" width="60" height="60" viewBox="0 0 60 60">
  <g id="circule" transform="translate(0 -0.381)">
    <circle id="Elipse_75" data-name="Elipse 75" cx="30" cy="30" r="30" transform="translate(0 0.381)" fill="#a8cf45"/>
    <path id="check-all-svgrepo-com" d="M20.175,5.427a1.817,1.817,0,0,1,2.739.023,2.42,2.42,0,0,1,.072,3.08L12.5,23.281a1.823,1.823,0,0,1-2.838.059L2.713,15.519a2.4,2.4,0,0,1-.566-2.171,2.108,2.108,0,0,1,1.422-1.6,1.834,1.834,0,0,1,1.929.637L11,18.572l9.123-13.08a.723.723,0,0,1,.053-.065ZM17.758,20.621l2.417,2.719a1.823,1.823,0,0,0,2.835-.059L33.5,8.531a2.411,2.411,0,0,0,.51-2.189A2.088,2.088,0,0,0,32.545,4.79a1.845,1.845,0,0,0-1.912.7l-9.125,13.08-1.274-1.437-2.478,3.485Z" transform="translate(11.415 17.264)" fill="#fff"/>
  </g>
</svg>
