<svg id="Grupo_773" data-name="Grupo 773" xmlns="http://www.w3.org/2000/svg" width="42" height="42" viewBox="0 0 42 42">
  <g id="Grupo_772" data-name="Grupo 772">
    <path id="Caminho_9947" data-name="Caminho 9947" d="M174.895,7.516h13.263a2.429,2.429,0,0,0,2.1-3.648.663.663,0,1,0-1.148.665,1.088,1.088,0,0,1,.149.552,1.107,1.107,0,0,1-1.105,1.105H174.895a1.105,1.105,0,0,1,0-2.211h9.965a.663.663,0,0,0,.574-1,1.088,1.088,0,0,1-.149-.552,1.107,1.107,0,0,1,1.105-1.105h11.495a1.105,1.105,0,0,1,0,2.211h-5.659a.663.663,0,0,0,0,1.326h5.659a2.432,2.432,0,1,0,0-4.863H186.389a2.434,2.434,0,0,0-2.432,2.432q0,.111.01.221h-9.073a2.432,2.432,0,0,0,0,4.863Z" transform="translate(-158.316)" fill="#a8cf45"/>
    <path id="Caminho_9948" data-name="Caminho 9948" d="M40.453,27.411H30.726a1.549,1.549,0,0,0-1.547,1.547v1.592a.663.663,0,1,0,1.326,0V28.958a.221.221,0,0,1,.221-.221h9.726a.221.221,0,0,1,.221.221v2.653a.221.221,0,0,1-.221.221h-16.8a1.549,1.549,0,0,0-1.547,1.547v7.295H18.126V37.8a1.549,1.549,0,0,0-1.547-1.547H12.821v-25.2H33.6v9.376a2.432,2.432,0,1,0,3.095,2.34.663.663,0,1,0-1.326,0,1.105,1.105,0,1,1-1.105-1.105A.663.663,0,0,0,34.926,21V11.053h.221a.663.663,0,0,0,0-1.326h-4.3l-4.4-1.6a.663.663,0,1,0-.453,1.246l.969.352H9.726V.663A.663.663,0,1,0,8.4.663V9.726H2.125L7.352,3.752a.663.663,0,0,0-1-.873L.166,9.95A.694.694,0,0,0,0,10.392v5.3a1.549,1.549,0,0,0,1.547,1.547H3.316a1.549,1.549,0,0,0,1.547-1.547V11.053h2.21V14.8c0,.01,0,.021,0,.031v3.683c0,.01,0,.021,0,.031v3.683c0,.01,0,.021,0,.031v3.683c0,.01,0,.021,0,.031V29.65c0,.01,0,.021,0,.031v3.683c0,.01,0,.021,0,.031v2.858H2.432A1.549,1.549,0,0,0,.884,37.8v2.874H.663A.663.663,0,0,0,.663,42H12.158a.663.663,0,0,0,0-1.326H2.21V37.8a.221.221,0,0,1,.221-.221H16.579a.221.221,0,0,1,.221.221v2.874H14.81a.663.663,0,1,0,0,1.326H41.337a.663.663,0,1,0,0-1.326H40.231V37.8a1.549,1.549,0,0,0-1.547-1.547H30.748a.663.663,0,1,0,0,1.326h7.936a.221.221,0,0,1,.221.221v2.874H23.432V37.579H28.14a.663.663,0,0,0,0-1.326H23.432V33.379a.221.221,0,0,1,.221-.221H35.368v1.835a.663.663,0,1,0,1.326,0V33.158h3.758A1.549,1.549,0,0,0,42,31.611V28.958A1.549,1.549,0,0,0,40.453,27.411ZM3.537,15.695a.221.221,0,0,1-.221.221H1.547a.221.221,0,0,1-.221-.221V11.053h2.21v4.642Zm7.958,20.558H8.4v-2.4l2.2-.733a.663.663,0,0,0-.419-1.258l-1.78.593V30.143l2.2-.733a.663.663,0,0,0-.419-1.258l-1.78.593V26.43l2.2-.733a.663.663,0,1,0-.419-1.258l-1.78.593V22.716l2.2-.733a.663.663,0,1,0-.419-1.258l-1.78.593V19l2.2-.733a.663.663,0,0,0-.419-1.258L8.4,17.6V15.288l2.2-.733A.663.663,0,1,0,10.18,13.3L8.4,13.89V11.052h3.095Z" transform="translate(0)" fill="#a8cf45"/>
    <path id="Caminho_9949" data-name="Caminho 9949" d="M129.782,33.621l1.768.643A.663.663,0,0,0,132,33.018l-1.768-.643a.663.663,0,0,0-.453,1.246Z" transform="translate(-118.735 -29.682)" fill="#a8cf45"/>
  </g>
</svg>
