<svg xmlns="http://www.w3.org/2000/svg" width="44.994" height="44.994" viewBox="0 0 44.994 44.994">
  <g id="Grupo_800" data-name="Grupo 800" transform="translate(-1152 -471)">
    <path id="Caminho_9996" data-name="Caminho 9996" d="M1277.546,665.962a1.031,1.031,0,0,1-.453-.969c.014-2.622-.015-5.243.017-7.865a2.846,2.846,0,0,0-1.533-2.663,9.618,9.618,0,0,0-3.2-1.026,20.147,20.147,0,0,0-9.514.421,7.3,7.3,0,0,0-1.775.836,2.523,2.523,0,0,0-1.207,2.3c.014,2.651,0,5.3.012,7.953a1.071,1.071,0,0,1-.451,1.014h-.527a1.144,1.144,0,0,1-.443-1.023c.016-2.635.023-5.27,0-7.9a4.042,4.042,0,0,1,1.92-3.581,9.948,9.948,0,0,1,3.811-1.368c.789-.151,1.587-.251,2.382-.374,0-.021,0-.061-.012-.07a6.457,6.457,0,0,1-2.946-6.168,4.737,4.737,0,0,1,1.28-3.231,4.63,4.63,0,0,1,3.452-1.37,4.466,4.466,0,0,1,4.48,2.487c1.209,2.494.406,6.611-2.322,8.209-.048.028-.091.065-.206.148.68.1,1.292.167,1.9.272a12.484,12.484,0,0,1,3.654,1.042,4.366,4.366,0,0,1,2.49,2.788,5.018,5.018,0,0,1,.143,1.214c.012,2.62,0,5.241.013,7.861a1.182,1.182,0,0,1-.44,1.069ZM1265,645.737a5.963,5.963,0,0,0,1.189,3.777,2.8,2.8,0,0,0,4.614-.007,5.537,5.537,0,0,0,1.14-4.119,3.084,3.084,0,0,0-3.276-3.117,3.135,3.135,0,0,0-3.461,2.22A8.945,8.945,0,0,0,1265,645.737Z" transform="translate(-93.997 -149.968)" fill="#a8cf45"/>
    <path id="Caminho_9997" data-name="Caminho 9997" d="M1152,623.677c.7-2.169,2.6-2.447,4.5-2.813a4.616,4.616,0,0,1-1.341-3.853,3.246,3.246,0,0,1,6.429-.075,4.606,4.606,0,0,1-1.331,3.929c.471.095.9.175,1.321.267a4.88,4.88,0,0,1,2.179.977,2.622,2.622,0,0,1,.994,2.107c-.007,1.639,0,3.279,0,4.918,0,.571-.243.873-.691.877s-.711-.3-.712-.862c0-1.566-.027-3.133.009-4.7a1.44,1.44,0,0,0-1.012-1.566,16.658,16.658,0,0,0-2.978-.666,10.6,10.6,0,0,0-4.3.4,4.626,4.626,0,0,0-.957.424,1.345,1.345,0,0,0-.707,1.27c.014,1.581,0,3.162.008,4.743,0,.408-.051.777-.492.925-.419.141-.688-.1-.917-.415Zm6.377-8.095a1.57,1.57,0,0,0-1.752,1.208,3.109,3.109,0,0,0,.562,2.739,1.414,1.414,0,0,0,2.381,0,3.087,3.087,0,0,0,.636-2.309A1.622,1.622,0,0,0,1158.377,615.583Z" transform="translate(0 -126.402)" fill="#a8cf45"/>
    <path id="Caminho_9998" data-name="Caminho 9998" d="M1439.9,629.529c-.24.324-.524.569-.958.4-.413-.161-.453-.521-.451-.909.008-1.567-.01-3.133.01-4.7a1.3,1.3,0,0,0-.787-1.351,13.082,13.082,0,0,0-2.512-.712,11.315,11.315,0,0,0-4.7.243,6.036,6.036,0,0,0-.909.314,1.579,1.579,0,0,0-1.048,1.645c.045,1.492.013,2.986.013,4.479,0,.117.006.235-.005.351a.7.7,0,0,1-.711.686.668.668,0,0,1-.683-.7c-.008-1.786-.024-3.573.011-5.358a2.521,2.521,0,0,1,1.229-2.025,6.765,6.765,0,0,1,2.75-.966c.142-.027.285-.049.477-.082-.073-.1-.113-.166-.164-.223a4.427,4.427,0,0,1-1.053-4.162,3.048,3.048,0,0,1,3.545-2.3,3.01,3.01,0,0,1,2.79,2.794c.139,1.471-.126,2.269-1.3,3.887a9.809,9.809,0,0,1,1.289.271,12.961,12.961,0,0,1,1.967.822,2.776,2.776,0,0,1,1.2,1.712Zm-4.531-12.073c-.009-.1-.013-.31-.045-.512a1.571,1.571,0,0,0-1.561-1.39c-1.069-.068-1.752.3-1.974,1.139a3.056,3.056,0,0,0,.615,2.884,1.389,1.389,0,0,0,2.241,0A3.15,3.15,0,0,0,1435.371,617.455Z" transform="translate(-242.909 -126.365)" fill="#a8cf45"/>
    <path id="Caminho_9999" data-name="Caminho 9999" d="M1296.486,471c.022.019.042.049.066.054,1.987.339,2.789,2.136,2.525,3.978a4.542,4.542,0,0,1-1.328,2.66c.554.118,1.059.186,1.537.337a7.807,7.807,0,0,1,1.574.641,2.647,2.647,0,0,1,1.389,2.429c0,1.625,0,3.25,0,4.874a1.448,1.448,0,0,1-.027.3.64.64,0,0,1-.723.557.615.615,0,0,1-.633-.605c-.031-.408-.019-.819-.019-1.229,0-1.259-.014-2.518,0-3.776a1.366,1.366,0,0,0-.872-1.436,13.287,13.287,0,0,0-2.436-.668,11.364,11.364,0,0,0-4.953.32,4.69,4.69,0,0,0-.887.369,1.436,1.436,0,0,0-.811,1.393c.015,1.537.005,3.074,0,4.611a2.814,2.814,0,0,1-.019.438.687.687,0,0,1-1.35.045,2,2,0,0,1-.033-.436c0-1.537.018-3.074-.007-4.611a2.746,2.746,0,0,1,1.691-2.735,18.12,18.12,0,0,1,2.419-.74c.107-.031.218-.047.4-.084a3.922,3.922,0,0,1-1.22-2.189,6.868,6.868,0,0,1-.03-2.082,2.8,2.8,0,0,1,2.194-2.313c.109-.03.216-.071.323-.108Zm-2.462,3.369-.122.044a10.048,10.048,0,0,0,.643,1.736,1.467,1.467,0,0,0,2.679-.009,3.255,3.255,0,0,0,.466-2.23,1.551,1.551,0,0,0-.971-1.354A1.838,1.838,0,0,0,1294.024,474.369Z" transform="translate(-121.374)" fill="#a8cf45"/>
    <path id="Caminho_10000" data-name="Caminho 10000" d="M1439.9,486.379c-.227.345-.519.577-.95.419-.413-.152-.462-.512-.459-.9.009-1.566-.011-3.132.01-4.7a1.324,1.324,0,0,0-.817-1.378,13.075,13.075,0,0,0-2.516-.7,11.19,11.19,0,0,0-4.908.32,4.7,4.7,0,0,0-1,.434,1.333,1.333,0,0,0-.709,1.267c.015,1.61,0,3.22.007,4.829,0,.4-.1.733-.532.85a.662.662,0,0,1-.864-.624c-.013-1.844-.036-3.689.02-5.531a2.459,2.459,0,0,1,1.239-1.924,7.135,7.135,0,0,1,2.842-.966c.109-.02.217-.047.34-.073-2.23-3.1-1.7-5.657,1.356-6.7h1.142c.1.031.188.069.285.093a2.808,2.808,0,0,1,2.215,2.082,4.469,4.469,0,0,1-.934,4.23c-.077.091-.152.184-.254.306,1.906.347,3.784.629,4.488,2.78Zm-4.532-12.074c-.008-.1-.012-.3-.045-.5a1.591,1.591,0,0,0-1.614-1.388,1.641,1.641,0,0,0-1.923,1.157,3.074,3.074,0,0,0,.6,2.85,1.406,1.406,0,0,0,2.3-.013A3.2,3.2,0,0,0,1435.369,474.3Z" transform="translate(-242.907)" fill="#a8cf45"/>
    <path id="Caminho_10001" data-name="Caminho 10001" d="M1158.943,471c.012.009.022.024.035.026,2.4.434,2.93,2.612,2.536,4.4a4.459,4.459,0,0,1-1.262,2.269c.563.119,1.073.216,1.577.336a4.338,4.338,0,0,1,2.151,1.118,2.463,2.463,0,0,1,.764,1.766q.012,2.569,0,5.139c0,.5-.265.785-.689.789s-.71-.3-.712-.817c-.005-1.61-.017-3.221.005-4.831a1.319,1.319,0,0,0-.819-1.376,13.172,13.172,0,0,0-2.517-.7,11.256,11.256,0,0,0-4.911.322,4.543,4.543,0,0,0-.925.39,1.414,1.414,0,0,0-.779,1.365c.021,1.566,0,3.133.01,4.7,0,.391-.045.753-.459.9a.761.761,0,0,1-.951-.418v-5.888a2.849,2.849,0,0,1,1.29-1.745,14.506,14.506,0,0,1,1.975-.792,8.921,8.921,0,0,1,1.142-.245,12.336,12.336,0,0,1-.878-1.421A3.574,3.574,0,0,1,1157.8,471Zm-2.41,3.354a3.131,3.131,0,0,0,.648,2.006,1.421,1.421,0,0,0,2.385,0,3.141,3.141,0,0,0,.555-2.781,1.415,1.415,0,0,0-.883-1.02A1.836,1.836,0,0,0,1156.533,474.354Z" fill="#a8cf45"/>
    <path id="Caminho_10002" data-name="Caminho 10002" d="M1295.09,795.425a.926.926,0,0,1-.519-.928c.012-2.016,0-4.032.008-6.048a1.451,1.451,0,0,1,.062-.473.636.636,0,0,1,.715-.453.65.65,0,0,1,.613.586,2.139,2.139,0,0,1,.012.35c0,2-.008,4,.008,6a1.008,1.008,0,0,1-.459.962Z" transform="translate(-125.865 -279.431)" fill="#a8cf45"/>
    <path id="Caminho_10003" data-name="Caminho 10003" d="M1381.789,795.827a1.006,1.006,0,0,1-.459-.961c.016-2.045.01-4.091.005-6.136,0-.335.083-.651.422-.733a.983.983,0,0,1,.717.115.833.833,0,0,1,.257.608c.018,2.1.009,4.207.013,6.311a.859.859,0,0,1-.515.8Z" transform="translate(-202.458 -279.833)" fill="#a8cf45"/>
    <path id="Caminho_10004" data-name="Caminho 10004" d="M1226.883,563.121c0-.643-.006-1.286,0-1.929a.706.706,0,0,1,.663-.776.717.717,0,0,1,.734.76q.018,1.929,0,3.858a.7.7,0,1,1-1.4-.028C1226.877,564.378,1226.883,563.749,1226.883,563.121Z" transform="translate(-66.107 -78.938)" fill="#a8cf45"/>
    <path id="Caminho_10005" data-name="Caminho 10005" d="M1313.033,563.074c0,.629.007,1.257,0,1.885-.008.521-.278.819-.714.816s-.685-.3-.687-.831q-.006-1.841,0-3.683c0-.525.26-.839.68-.849s.717.33.723.864C1313.038,561.876,1313.033,562.475,1313.033,563.074Z" transform="translate(-140.923 -78.936)" fill="#a8cf45"/>
    <path id="Caminho_10006" data-name="Caminho 10006" d="M1450.473,706.271c0,.614.006,1.228,0,1.842-.006.493-.269.785-.688.788a.7.7,0,0,1-.711-.774q-.015-1.908,0-3.816a.714.714,0,0,1,.719-.773c.41.009.675.313.68.8C1450.478,704.984,1450.473,705.627,1450.473,706.271Z" transform="translate(-262.257 -205.291)" fill="#a8cf45"/>
    <path id="Caminho_10007" data-name="Caminho 10007" d="M1175.318,563.121c0,.628.007,1.257,0,1.885-.007.477-.253.755-.655.773a.683.683,0,0,1-.74-.741q-.022-1.929,0-3.858a.714.714,0,0,1,.73-.762.7.7,0,0,1,.665.774C1175.325,561.835,1175.318,562.478,1175.318,563.121Z" transform="translate(-19.342 -78.94)" fill="#a8cf45"/>
    <path id="Caminho_10008" data-name="Caminho 10008" d="M1365.729,563.107c0,.628.006,1.257,0,1.885-.006.5-.266.783-.689.785a.7.7,0,0,1-.71-.774q-.015-1.907,0-3.815a.721.721,0,0,1,.721-.774c.407.011.673.319.678.807C1365.734,561.849,1365.729,562.478,1365.729,563.107Z" transform="translate(-187.442 -78.937)" fill="#a8cf45"/>
    <path id="Caminho_10009" data-name="Caminho 10009" d="M1450.472,563.1c0,.628.005,1.257,0,1.885-.006.5-.265.784-.687.787a.694.694,0,0,1-.711-.772q-.015-1.907,0-3.815a.7.7,0,1,1,1.4.028C1450.478,561.844,1450.472,562.473,1450.472,563.1Z" transform="translate(-262.256 -78.934)" fill="#a8cf45"/>
    <path id="Caminho_10010" data-name="Caminho 10010" d="M1175.321,706.21c0,.643.007,1.286,0,1.929a.7.7,0,1,1-1.395.008q-.021-1.929,0-3.858a.7.7,0,1,1,1.395.036C1175.329,704.953,1175.321,705.582,1175.321,706.21Z" transform="translate(-19.346 -205.294)" fill="#a8cf45"/>
    <path id="Caminho_10011" data-name="Caminho 10011" d="M1228.286,706.237c0,.614.007,1.228,0,1.842-.008.521-.277.822-.711.821s-.688-.3-.69-.829q-.006-1.864,0-3.728c0-.491.267-.795.676-.806s.716.309.724.814C1228.293,704.979,1228.286,705.608,1228.286,706.237Z" transform="translate(-66.105 -205.29)" fill="#a8cf45"/>
    <path id="Caminho_10012" data-name="Caminho 10012" d="M1502.027,706.211c0-.614-.005-1.228,0-1.841.006-.519.275-.831.7-.829s.7.318.7.835q.012,1.863,0,3.727c0,.517-.294.814-.729.8-.416-.013-.663-.3-.669-.807C1502.021,707.468,1502.027,706.84,1502.027,706.211Z" transform="translate(-309.012 -205.294)" fill="#a8cf45"/>
    <path id="Caminho_10013" data-name="Caminho 10013" d="M1503.427,563.1c0,.614.007,1.228,0,1.841-.008.532-.265.827-.7.832s-.7-.285-.7-.815q-.009-1.863,0-3.726c0-.515.286-.831.706-.821a.728.728,0,0,1,.692.8C1503.436,561.848,1503.426,562.476,1503.427,563.1Z" transform="translate(-309.008 -78.938)" fill="#a8cf45"/>
  </g>
</svg>
