<svg xmlns="http://www.w3.org/2000/svg" width="51.438" height="51.438" viewBox="0 0 51.438 51.438">
  <g id="Grupo_798" data-name="Grupo 798" transform="translate(-768 -348)">
    <path id="Caminho_9989" data-name="Caminho 9989" d="M819.438,367.289c-.269.889-.518,1.785-.815,2.664a.677.677,0,0,1-.909.485.729.729,0,0,1-.447-1.114,6.451,6.451,0,0,0,.569-3.76c-.454-3.17-4.053-5.545-7.019-4.6a1.656,1.656,0,0,0-.738.469q-7.592,9.065-15.161,18.151c-.063.075-.12.154-.243.314a9.874,9.874,0,0,1,11.017,9.272c.155-.245.264-.4.36-.569q4.329-7.436,8.656-14.873c.093-.159.179-.323.283-.474a.7.7,0,0,1,1-.241.716.716,0,0,1,.292.992c-.056.121-.129.234-.2.35q-5.541,9.517-11.075,19.037a13.466,13.466,0,0,1-2.521,3.474,9.714,9.714,0,0,1-5.377,2.482,1.673,1.673,0,0,0-.281.086h-1.909a1.122,1.122,0,0,0-.228-.084,9.7,9.7,0,0,1-7.464-5.153c-.128-.229-.242-.466-.371-.716a1.124,1.124,0,0,0-.088.115c-.039.074-.073.15-.11.225a9.542,9.542,0,0,1-5.127,4.852,24.077,24.077,0,0,1-2.788.761h-1.909a1.759,1.759,0,0,0-.282-.087,9.766,9.766,0,0,1-8.192-7.148c-.162-.592-.246-1.2-.367-1.807v-1.507c.162-.732.286-1.475.5-2.194a8.576,8.576,0,0,1,2.39-3.94c2.075-1.948,4.121-3.927,6.189-5.882a.7.7,0,0,0,.242-.74,9.442,9.442,0,0,1,3.338-9.722c6.534-5.443,13.149-10.787,19.695-16.214a9.518,9.518,0,0,1,4.42-2.2h1.708a1.3,1.3,0,0,0,.23.084,7.274,7.274,0,0,1,5.232,10.85,3.549,3.549,0,0,0-.14.327c.161.009.276.018.391.021a7.278,7.278,0,0,1,6.813,4.8,18.4,18.4,0,0,1,.433,1.8Zm-33.766-3.063A9.879,9.879,0,0,1,796.608,375.1a2.134,2.134,0,0,0,.2-.164c4.484-5.391,9-10.758,13.431-16.19a5.3,5.3,0,0,0,.634-5.867,5.543,5.543,0,0,0-4.926-3.351,6.038,6.038,0,0,0-4.352,1.625q-6.768,5.563-13.541,11.119C787.292,362.889,786.536,363.514,785.671,364.226Zm9.462,9.745a8.286,8.286,0,1,0-8.3,8.286A8.393,8.393,0,0,0,795.133,373.971Zm9.042,15.686a8.286,8.286,0,1,0-8.321,8.273A8.289,8.289,0,0,0,804.174,389.657Zm-18.083,0a8.286,8.286,0,1,0-8.318,8.272A8.288,8.288,0,0,0,786.092,389.658Zm-8.149-11.536-1.868,1.786h2.945Zm10.09,5.611h-2.357l1.175,2.03Z" fill="#a8cf45"/>
    <path id="Caminho_9990" data-name="Caminho 9990" d="M868.936,494.79a7.276,7.276,0,0,1-14.5.866,7.2,7.2,0,0,1,.373-3.309c.213-.616.566-.824,1.036-.643s.6.54.387,1.159a5.755,5.755,0,1,0,2.453-3.006c-.5.294-.884.238-1.142-.15-.279-.421-.161-.808.343-1.124a7.272,7.272,0,0,1,11.053,6.207Z" transform="translate(-74.807 -120.83)" fill="#a8cf45"/>
    <path id="Caminho_9991" data-name="Caminho 9991" d="M936.4,611.825a7.282,7.282,0,1,1-7.238-7.321A7.283,7.283,0,0,1,936.4,611.825Zm-1.507-.036a5.774,5.774,0,1,0-5.782,5.775A5.779,5.779,0,0,0,934.891,611.789Z" transform="translate(-133.228 -222.145)" fill="#a8cf45"/>
    <path id="Caminho_9992" data-name="Caminho 9992" d="M801.4,611.77a7.282,7.282,0,1,1-7.292-7.267A7.282,7.282,0,0,1,801.4,611.77Zm-1.507,0a5.774,5.774,0,1,0-5.761,5.8A5.778,5.778,0,0,0,799.9,611.766Z" transform="translate(-16.315 -222.144)" fill="#a8cf45"/>
  </g>
</svg>
