<svg id="Componente_3_1" data-name="Componente 3 – 1" xmlns="http://www.w3.org/2000/svg" width="38.5" height="26.4" viewBox="0 0 38.5 26.4">
  <text id="_" data-name="●   " transform="translate(0 18.8)" fill="#2a426b" font-size="12" font-family="SegoeUIBlack, Segoe UI"><tspan x="0" y="0">●</tspan><tspan y="0" xml:space="preserve" font-family="Roboto-Black, Roboto" font-weight="800">   </tspan></text>
  <path id="paper-15" d="M88.633,0h15.4a3.179,3.179,0,0,1,2.333.967,3.179,3.179,0,0,1,.967,2.333V23.1a3.3,3.3,0,0,1-3.3,3.3h-15.4a3.3,3.3,0,0,1-3.3-3.3V3.3A3.179,3.179,0,0,1,86.3.967,3.179,3.179,0,0,1,88.633,0Zm3.3,18.7h8.8a1.1,1.1,0,0,1,0,2.2h-8.8a1.1,1.1,0,0,1,0-2.2Zm0-4.4h8.8a1.1,1.1,0,0,1,0,2.2h-8.8a1.1,1.1,0,0,1,0-2.2Zm12.1-12.1h-15.4a1.1,1.1,0,0,0-1.1,1.1V23.1a1.1,1.1,0,0,0,1.1,1.1h15.4a1.1,1.1,0,0,0,1.1-1.1V3.3a1.1,1.1,0,0,0-1.1-1.1Zm-12.1,7.7h8.8a1.1,1.1,0,0,1,0,2.2h-8.8a1.1,1.1,0,0,1,0-2.2Zm0-4.4h4.4a1.1,1.1,0,0,1,.778,1.878,1.93,1.93,0,0,1-.778.322h-4.4a1.1,1.1,0,0,1-.778-1.878A1.06,1.06,0,0,1,91.933,5.5Z" transform="translate(-68.833)" fill="#2a426b"/>
</svg>
