<svg xmlns="http://www.w3.org/2000/svg" width="11.239" height="16.118" viewBox="0 0 11.239 16.118">
  <path id="Caminho_10018" data-name="Caminho 10018" d="M1344.653,914.98c-.519-.791-1.021-1.557-1.523-2.323-.78-1.192-1.564-2.381-2.336-3.577a6.16,6.16,0,0,1-1.094-3.768,4.969,4.969,0,0,1,9.853-.468,5.376,5.376,0,0,1-.519,3.305,7.9,7.9,0,0,1-.518.932Zm0-6.543a2.771,2.771,0,1,0-2.771-2.785A2.77,2.77,0,0,0,1344.651,908.438Z" transform="translate(-1339.041 -900.048)" fill="none" stroke="#a8cf45" stroke-width="1.3"/>
</svg>
