<svg xmlns="http://www.w3.org/2000/svg" width="15.909" height="15.187" viewBox="0 0 15.909 15.187">
  <g id="Grupo_795" data-name="Grupo 795" transform="translate(-935.25 -516.455)">
    <path id="Caminho_9979" data-name="Caminho 9979" d="M936,530.718v-.141a6.648,6.648,0,0,0,.5-.727,7.2,7.2,0,0,0,.633-2.477.476.476,0,0,0-.094-.35,5.8,5.8,0,0,1-.91-2.16c-.054-.27-.083-.544-.124-.816v-.76c.031-.212.053-.426.093-.636a6.255,6.255,0,0,1,2.58-4,7.548,7.548,0,0,1,5.449-1.394,7.289,7.289,0,0,1,4.365,2.026,6.11,6.11,0,0,1,1.793,3.2c.056.264.086.534.128.8v.788a.718.718,0,0,0-.024.108,5.687,5.687,0,0,1-.888,2.65,7.122,7.122,0,0,1-5.2,3.258,7.713,7.713,0,0,1-3.937-.443.282.282,0,0,0-.194.013c-.209.094-.409.208-.619.3a13.682,13.682,0,0,1-3.2.919A.29.29,0,0,1,936,530.718Z" fill="none" stroke="#a8cf45" stroke-width="1.5"/>
  </g>
</svg>
