<svg xmlns="http://www.w3.org/2000/svg" width="53.918" height="53.814" viewBox="0 0 53.918 53.814">
  <g id="Grupo_799" data-name="Grupo 799" transform="translate(-78 -463)">
    <path id="Caminho_9993" data-name="Caminho 9993" d="M78,552.636c.1-.274.189-.559.318-.821a3.334,3.334,0,0,1,3.138-2.009c2.387-.025,4.774-.008,7.161-.008h14.742a3.381,3.381,0,0,1,.526.012.783.783,0,0,1-.01,1.558,3.971,3.971,0,0,1-.526.01c-7.161,0-14.322.026-21.482-.021-1.484-.01-2.582.88-2.218,2.785h.657q12.952,0,25.9,0a3.349,3.349,0,0,1,.629.03.72.72,0,0,1,.645.819.7.7,0,0,1-.707.708,11.234,11.234,0,0,1-1.473.008,1.063,1.063,0,0,0-.979.455q-3.767,4.527-7.561,9.031c-.641.764-.937.778-1.687.124q-5.372-4.684-10.753-9.358a.876.876,0,0,0-.5-.232c-1.351-.017-2.7-.007-4.054,0a.8.8,0,0,0-.189.064c0,.793-.017,1.6.015,2.4.006.151.184.32.319.439q6.023,5.258,12.055,10.506c.7.613.729.91.134,1.62-1.352,1.611-2.7,3.229-4.067,4.824a1.285,1.285,0,0,1-.775.441.935.935,0,0,1-.657-.416.76.76,0,0,1,.166-.957q1.442-1.707,2.875-3.422c.314-.374.625-.751.975-1.17l-11.01-9.589v22.7c.207-.235.354-.4.494-.564q2.062-2.457,4.122-4.916c.079-.094.155-.191.238-.281a.808.808,0,0,1,1.165-.146.794.794,0,0,1,.032,1.171c-.757.921-1.53,1.828-2.3,2.741-1.171,1.4-2.351,2.787-3.5,4.2a1.377,1.377,0,0,0-.271.744c-.039.611-.021,1.226-.01,1.838a1.892,1.892,0,0,0,1.851,1.9,1.817,1.817,0,0,0,1.733-.756c1.974-2.438,4.014-4.822,6.032-7.225.622-.741.93-.767,1.652-.138q4.464,3.884,8.92,7.779a1.3,1.3,0,0,0,.942.338c2.088-.014,4.177-.007,6.265-.007h.512l.094-.135a2.8,2.8,0,0,1-.333-.217q-6.668-5.8-13.332-11.6c-.581-.506-.638-.876-.177-1.427q7.36-8.788,14.727-17.57a.822.822,0,0,1,1.2-.217c.387.311.382.792-.036,1.292q-4.693,5.6-9.392,11.2l-4.906,5.852,5.538,4.824,21.912-26.128c-.8,0-1.478.014-2.151,0a.779.779,0,0,1-.813-.783.8.8,0,0,1,.777-.776,4.434,4.434,0,0,1,.473-.008h9.193c.274-1.422-.247-2.437-1.367-2.706a2.724,2.724,0,0,0-.625-.055c-1.509,0-3.019,0-4.528,0-.662,0-1.012-.287-1-.8.009-.495.352-.772.982-.774q2.264-.006,4.528,0a3.431,3.431,0,0,1,3.582,2.711.511.511,0,0,0,.085.126v35.946c-.954,2.326-1.729,2.838-4.3,2.838H92.93q-5.685,0-11.371,0a3.338,3.338,0,0,1-2.922-1.477A8.866,8.866,0,0,1,78,588.581Zm37,24.957c-.141.157-.248.269-.347.388q-1.285,1.529-2.567,3.061a.82.82,0,0,1-1.058.318c-.508-.238-.583-.818-.161-1.324q1.614-1.94,3.243-3.867c.543-.645.886-.671,1.538-.1q6.982,6.077,13.962,12.156c.179.156.363.307.63.533.039-.412.09-.7.091-1,.008-1.611-.01-3.223.013-4.834a1.135,1.135,0,0,0-.44-.98q-5.57-4.816-11.111-9.664c-.647-.564-.669-.9-.126-1.546q5.641-6.728,11.295-13.445a1.776,1.776,0,0,0,.324-1.571c-1.664,0-3.294.01-4.923-.008a.979.979,0,0,0-.849.388q-9.769,11.671-19.554,23.328c-.955,1.139-1.909,2.28-2.895,3.456l3.707,3.224c.955-1.137,1.862-2.227,2.783-3.305a.788.788,0,1,1,1.221.99c-.082.113-.178.216-.268.324l-2.541,3.035c.981.854,1.927,1.689,2.892,2.5a.943.943,0,0,0,.566.183q8.949.014,17.9.006c.176,0,.353-.027.682-.053Zm15.306-18.279-10.13,12.079,10.13,8.819Zm-27.694-3.551h-16.1l9.307,8.1ZM84.6,589.812H97.723l-7.581-6.6Z" transform="translate(0 -74.606)" fill="#a9cd4f"/>
    <path id="Caminho_9994" data-name="Caminho 9994" d="M281.07,463c.388.094.777.18,1.162.283a8.478,8.478,0,0,1,4.387,13.581.794.794,0,1,1-1.236-.975,7.224,7.224,0,0,0,1.589-4.623,6.89,6.89,0,0,0-13.713-.74,6.8,6.8,0,0,0,1.251,4.965c1.04,1.453,2.074,2.912,3.155,4.334a9.271,9.271,0,0,1,1.823,4.135.734.734,0,0,0,.074.3c.152.206.3.514.5.561.36.083.511-.253.549-.562a10.714,10.714,0,0,1,2.578-5.372c.373-.467.836-.583,1.22-.285a.828.828,0,0,1,.06,1.214c-.221.316-.44.635-.682.934a7.394,7.394,0,0,0-1.57,3.56,4.026,4.026,0,0,1-.2.761,2.083,2.083,0,0,1-1.994,1.361,2.114,2.114,0,0,1-1.912-1.408.909.909,0,0,1-.062-.2,10.14,10.14,0,0,0-2.447-5.142c-.881-1.134-1.717-2.3-2.529-3.489a8.445,8.445,0,0,1,5.743-13.1,2.926,2.926,0,0,0,.351-.1Z" transform="translate(-166.422)" fill="#a9cd4f"/>
    <path id="Caminho_9995" data-name="Caminho 9995" d="M305,500.565a4.418,4.418,0,1,1-.1-8.835,4.418,4.418,0,1,1,.1,8.835Zm-2.9-4.432a2.844,2.844,0,0,0,5.688.036,2.869,2.869,0,0,0-2.834-2.86A2.836,2.836,0,0,0,302.1,496.133Z" transform="translate(-191.279 -24.695)" fill="#a9cd4f"/>
  </g>
</svg>
