<svg xmlns="http://www.w3.org/2000/svg" xmlns:xlink="http://www.w3.org/1999/xlink" width="111" height="111" viewBox="0 0 111 111">
  <defs>
    <clipPath id="clip-path">
      <rect id="Retângulo_306" data-name="Retângulo 306" width="69" height="69" transform="translate(-0.285 -0.285)" fill="#fff"/>
    </clipPath>
  </defs>
  <g id="Ícone" transform="translate(-517 -1810)">
    <circle id="Elipse_83" data-name="Elipse 83" cx="55.5" cy="55.5" r="55.5" transform="translate(517 1810)" fill="#a8cf45" opacity="0.996"/>
    <g id="Grupo_453" data-name="Grupo 453" transform="translate(538.262 1817.344)">
      <g id="Grupo_452" data-name="Grupo 452" transform="translate(0.023 10.94)" clip-path="url(#clip-path)">
        <path id="Caminho_1131" data-name="Caminho 1131" d="M0,68.461c.159-.235.335-.461.475-.707q10.463-18.4,20.92-36.8c.13-.229.265-.455.45-.773l6.821,12.512,2.408-4.369Q35.495,30.3,39.9,22.272a2.843,2.843,0,0,0,.315-1.258c.036-1.622.014-3.246.014-4.9h-8.01V20.06H14.469c.158-.259.275-.465.407-.663,1.518-2.284,3.027-4.574,4.566-6.844a.751.751,0,0,0-.008-1C17.776,9.1,16.144,6.622,14.442,4.061H28.214V0H44.259q-.007,10.711-.006,21.422a1.724,1.724,0,0,0,.209.754q11.993,23.213,24,46.42Q34.531,68.6.6,68.59a2.891,2.891,0,0,1-.6-.128M33.657,41.953,21.21,64.548H61.844l-11.7-22.64-4.6,3.062-3.767-3.805L38.07,44.9l-4.413-2.942M6.9,64.576h.758c2.762,0,5.525-.013,8.287.012a.952.952,0,0,0,.984-.572q4.556-8.328,9.16-16.629a.918.918,0,0,0,.007-1.03c-1.341-2.416-2.651-4.849-3.973-7.275-.1-.189-.222-.37-.375-.622L6.9,64.576M42.171,26.5l-6.562,11.91,2.022,1.359,4.24-4.265c.18.17.342.317.5.471,1.135,1.133,2.262,2.275,3.411,3.394.138.134.464.265.585.195.648-.378,1.26-.821,1.913-1.261l-6.1-11.8M40.183,4.074H32.246v7.952h7.937ZM21.93,8.067c.809,1.218,1.527,2.344,2.3,3.434a.815.815,0,0,1,0,1.112c-.778,1.1-1.5,2.239-2.288,3.422h6.207V8.067Z" transform="translate(-0.278 -0.23)" fill="#fff"/>
      </g>
    </g>
  </g>
</svg>
