<svg id="oil" xmlns="http://www.w3.org/2000/svg" width="42" height="42" viewBox="0 0 42 42">
  <g id="Grupo_775" data-name="Grupo 775">
    <g id="Grupo_774" data-name="Grupo 774">
      <path id="Caminho_9950" data-name="Caminho 9950" d="M13.548,0H5.419V3.107L0,8.526V21.16l1.355,2.71v7.809L0,34.388v4.9A2.712,2.712,0,0,0,2.71,42H16.258a2.712,2.712,0,0,0,2.71-2.71v-4.9l-1.355-2.71V23.87l1.355-2.71V8.526L13.548,3.107ZM6.774,1.355h5.419V2.71H6.774ZM17.613,9.087v1.074H16.258v1.355h1.355v2.71H16.258v1.355h1.355v2.71H16.258v1.355h1.355V20.84l-1.355,2.71V32l1.355,2.71V39.29a1.356,1.356,0,0,1-1.355,1.355H2.71A1.356,1.356,0,0,1,1.355,39.29V34.708L2.71,32V23.55L1.355,20.84V19.645H14.9V18.29H1.355v-2.71H14.9V14.226H1.355v-2.71H14.9V10.161H1.355V9.087L6.377,4.065h6.213Z" fill="#a8cf45"/>
      <path id="Caminho_9951" data-name="Caminho 9951" d="M285.548,171.107V168h-8.129v3.107L272,176.526v16.539a2.712,2.712,0,0,0,2.71,2.71h13.548a2.712,2.712,0,0,0,2.71-2.71V176.526Zm-6.774-1.752h5.419v1.355h-5.419Zm10.839,8.806h-1.355v1.355h1.355v2.71h-1.355v1.355h1.355v2.71h-1.355v1.355h1.355v2.71h-1.355v1.355h1.355v1.355a1.356,1.356,0,0,1-1.355,1.355H274.71a1.356,1.356,0,0,1-1.355-1.355V191.71H286.9v-1.355H273.355v-2.71H286.9V186.29H273.355v-2.71H286.9v-1.355H273.355v-2.71H286.9v-1.355H273.355v-1.074l5.022-5.022h6.213l5.022,5.022Z" transform="translate(-248.968 -153.774)" fill="#a8cf45"/>
      <path id="Caminho_9952" data-name="Caminho 9952" d="M60.742,266.664l-3.794,5.058a4.742,4.742,0,1,0,7.587,0Zm0,11.291a3.387,3.387,0,0,1-2.71-5.419l2.71-3.613,2.71,3.613a3.387,3.387,0,0,1-2.71,5.419Z" transform="translate(-51.258 -244.084)" fill="#a8cf45"/>
    </g>
  </g>
</svg>
