<svg xmlns="http://www.w3.org/2000/svg" width="46.75" height="37.4" viewBox="0 0 46.75 37.4">
  <g id="tractor" transform="translate(0 -51.2)">
    <g id="Grupo_789" data-name="Grupo 789" transform="translate(0 51.2)">
      <g id="Grupo_788" data-name="Grupo 788" transform="translate(0)">
        <path id="Caminho_9958" data-name="Caminho 9958" d="M179.24,443.734h-7.792a.779.779,0,1,0,0,1.558h7.792a.779.779,0,1,0,0-1.558Z" transform="translate(-155.086 -407.892)" fill="#a8cf45"/>
        <path id="Caminho_9959" data-name="Caminho 9959" d="M34.209,247.5a8.571,8.571,0,1,0-8.571,8.571A8.581,8.581,0,0,0,34.209,247.5Zm-15.583,0a7.012,7.012,0,1,1,7.012,7.012A7.021,7.021,0,0,1,18.625,247.5Z" transform="translate(-15.509 -221.792)" fill="#a8cf45"/>
        <path id="Caminho_9960" data-name="Caminho 9960" d="M11.689,443.734H.781a.779.779,0,1,0,0,1.558H11.689a.779.779,0,1,0,0-1.558Z" transform="translate(-0.002 -407.892)" fill="#a8cf45"/>
        <path id="Caminho_9961" data-name="Caminho 9961" d="M104.177,325.047a.779.779,0,0,0-.779-.779h-.009a.779.779,0,1,0,.788.779Z" transform="translate(-93.245 -299.335)" fill="#a8cf45"/>
        <path id="Caminho_9962" data-name="Caminho 9962" d="M76.059,294.03a3.9,3.9,0,1,0-3.9,3.9A3.9,3.9,0,0,0,76.059,294.03Zm-6.233,0a2.337,2.337,0,1,1,2.337,2.337A2.34,2.34,0,0,1,69.825,294.03Z" transform="translate(-62.034 -268.317)" fill="#a8cf45"/>
        <path id="Caminho_9963" data-name="Caminho 9963" d="M363.856,318.109a5.454,5.454,0,1,0-5.454-5.454A5.461,5.461,0,0,0,363.856,318.109Zm0-9.35a3.9,3.9,0,1,1-3.9,3.9A3.9,3.9,0,0,1,363.856,308.759Z" transform="translate(-325.677 -283.826)" fill="#a8cf45"/>
        <path id="Caminho_9964" data-name="Caminho 9964" d="M394.872,346.009a2.337,2.337,0,1,0-2.337-2.337A2.34,2.34,0,0,0,394.872,346.009Zm0-3.117a.779.779,0,1,1-.779.779A.78.78,0,0,1,394.872,342.892Z" transform="translate(-356.693 -314.842)" fill="#a8cf45"/>
        <path id="Caminho_9965" data-name="Caminho 9965" d="M120.4,65.225h-2.337v-3.9a.779.779,0,1,0-1.558,0v3.9h-8.009l-4.5-13.492a.778.778,0,0,0-.739-.533H87.671a.779.779,0,0,0-.771.669L85.341,62.777A.779.779,0,0,0,86.884,63l1.462-10.24H91.72L94.7,66.173a.781.781,0,0,0,.761.61H120.4a2.127,2.127,0,0,1,2.226,1.558h-6.9a.779.779,0,1,0,0,1.558h7.012v1.558h-7.012a.779.779,0,1,0,0,1.558h7.012v7.012a.779.779,0,0,0,1.558,0V69.121A3.727,3.727,0,0,0,120.4,65.225Zm-16.66,0,.994-1.989a.779.779,0,1,0-1.393-.7l-1.343,2.686H96.087l-2.77-12.467h9.375l4.156,12.467h-3.113Z" transform="translate(-77.542 -51.2)" fill="#a8cf45"/>
        <path id="Caminho_9966" data-name="Caminho 9966" d="M371.648,443.734H359.181a.779.779,0,1,0,0,1.558h12.467a.779.779,0,0,0,0-1.558Z" transform="translate(-325.677 -407.892)" fill="#a8cf45"/>
        <path id="Caminho_9967" data-name="Caminho 9967" d="M309.539,443.734H307.98a.779.779,0,0,0,0,1.558h1.558a.779.779,0,1,0,0-1.558Z" transform="translate(-279.151 -407.892)" fill="#a8cf45"/>
        <path id="Caminho_9968" data-name="Caminho 9968" d="M30.388,207.917a.779.779,0,0,0-.779.779v10.129H21.817v-2.337a11.688,11.688,0,0,0-21.7-6.024.779.779,0,1,0,1.334.8,10.129,10.129,0,0,1,18.812,5.219V219.6a.779.779,0,0,0,.779.779h9.35a.779.779,0,0,0,.779-.779V208.7A.779.779,0,0,0,30.388,207.917Z" transform="translate(0 -190.775)" fill="#a8cf45"/>
      </g>
    </g>
  </g>
</svg>
