<svg xmlns="http://www.w3.org/2000/svg" xmlns:xlink="http://www.w3.org/1999/xlink" width="111" height="111" viewBox="0 0 111 111">
  <defs>
    <clipPath id="clip-path">
      <rect id="Retângulo_308" data-name="Retângulo 308" width="80.994" height="75.689" fill="#fff"/>
    </clipPath>
  </defs>
  <g id="Ícone" transform="translate(-517 -1810)">
    <circle id="Elipse_83" data-name="Elipse 83" cx="55.5" cy="55.5" r="55.5" transform="translate(517 1810)" fill="#a8cf45" opacity="0.996"/>
    <g id="Ícone-2" data-name="Ícone" transform="translate(-666.997 -403.345)">
      <g id="Grupo_457" data-name="Grupo 457" transform="translate(1199 2231)">
        <g id="Grupo_456" data-name="Grupo 456" transform="translate(0 0)" clip-path="url(#clip-path)">
          <path id="Caminho_1138" data-name="Caminho 1138" d="M383.036,198.2a1.927,1.927,0,0,1-2.056,1.249c-.84-.023-1.681.016-2.52-.011-1.109-.035-1.776-.651-1.775-1.589s.667-1.544,1.783-1.566c.787-.016,1.578.037,2.362-.014a2.065,2.065,0,0,1,2.206,1.14Z" transform="translate(-302.042 -157.368)" fill="#fff"/>
          <path id="Caminho_1139" data-name="Caminho 1139" d="M75.051,115.734c6.276,0,12.551.022,18.827-.014a4.3,4.3,0,0,1,3.947,2.138c2.724,4.263,5.493,8.5,8.241,12.744,1.273,1.968,1.169,3.493-.384,5.237Q91.9,151.317,78.11,166.786c-2.009,2.252-4.272,2.255-6.274.009q-13.792-15.468-27.569-30.949a3.776,3.776,0,0,1-.395-5.237c2.755-4.243,5.535-8.47,8.26-12.732a4.346,4.346,0,0,1,4.013-2.16c6.3.039,12.6.015,18.906.015m11.334,19.155-8.284,26.9.166.071,24.017-26.967ZM71.692,161.878l.114-.087a2.573,2.573,0,0,0-.056-.3q-4.007-13.014-8.01-26.029a.717.717,0,0,0-.816-.611c-4.877.019-9.754.011-14.63.014a4.947,4.947,0,0,0-.591.082l23.989,26.932m3.187-.978.184,0,8.011-26H66.867L74.879,160.9M54.412,120.2,46.985,131.63H61.807L54.412,120.2m48.563,11.458L95.562,120.2l-7.4,11.452ZM92.589,118.972H77.865l7.366,11.379,7.358-11.379M64.732,130.324l7.349-11.372H57.374l7.358,11.372m17.578,1.341-7.34-11.34-7.335,11.34Z" transform="translate(-34.48 -92.788)" fill="#fff"/>
          <path id="Caminho_1140" data-name="Caminho 1140" d="M199.621,6.735c0,1.607.008,3.214,0,4.821-.008,1.161-.624,1.889-1.566,1.887s-1.585-.731-1.59-1.886q-.023-4.86,0-9.72C196.47.689,197.136-.021,198.09,0c.935.022,1.518.7,1.527,1.835.013,1.633,0,3.266,0,4.9" transform="translate(-157.522 0)" fill="#fff"/>
          <path id="Caminho_1141" data-name="Caminho 1141" d="M310.8,65.891c-1.45,0-2.219-1.236-1.687-2.25a3.232,3.232,0,0,1,.58-.743q2.311-2.331,4.641-4.642a3.253,3.253,0,0,1,.675-.54,1.47,1.47,0,0,1,1.823.232,1.494,1.494,0,0,1,.276,1.881,3.528,3.528,0,0,1-.544.673c-1.542,1.552-3.078,3.111-4.649,4.634a6.357,6.357,0,0,1-1.116.756" transform="translate(-247.726 -46.104)" fill="#fff"/>
          <path id="Caminho_1142" data-name="Caminho 1142" d="M64.722,66.008a7.7,7.7,0,0,1-1.36-.821q-2.523-2.452-4.981-4.969a1.583,1.583,0,1,1,2.246-2.2c1.672,1.645,3.322,3.312,4.979,4.971a1.489,1.489,0,0,1,.412,1.859,5.758,5.758,0,0,1-1.3,1.164" transform="translate(-46.347 -46.037)" fill="#fff"/>
          <path id="Caminho_1143" data-name="Caminho 1143" d="M3.179,196.37c.552,0,1.105-.03,1.654.007a1.514,1.514,0,0,1,1.5,1.437,1.4,1.4,0,0,1-1.273,1.609,24.312,24.312,0,0,1-3.764,0,1.46,1.46,0,0,1-1.288-1.613,1.565,1.565,0,0,1,1.518-1.435c.549-.036,1.1-.007,1.654-.007" transform="translate(0 -157.449)" fill="#fff"/>
          <path id="Caminho_1144" data-name="Caminho 1144" d="M199.725,80.628a1.589,1.589,0,0,1-1.574,1.549,1.631,1.631,0,0,1-1.552-1.59,1.6,1.6,0,0,1,1.593-1.539,1.559,1.559,0,0,1,1.533,1.58" transform="translate(-157.642 -63.384)" fill="#fff"/>
        </g>
      </g>
    </g>
  </g>
</svg>
