<svg xmlns="http://www.w3.org/2000/svg" xmlns:xlink="http://www.w3.org/1999/xlink" width="111" height="111" viewBox="0 0 111 111">
  <defs>
    <clipPath id="clip-path">
      <rect id="Retângulo_738" data-name="Retângulo 738" width="72.881" height="64.034" fill="#fff"/>
    </clipPath>
  </defs>
  <g id="Ícone" transform="translate(-517 -1810)">
    <circle id="Elipse_83" data-name="Elipse 83" cx="55.5" cy="55.5" r="55.5" transform="translate(517 1810)" fill="#a8cf45" opacity="0.996"/>
    <g id="Grupo_797" data-name="Grupo 797" transform="translate(536.059 1830.483)" clip-path="url(#clip-path)">
      <path id="Caminho_9983" data-name="Caminho 9983" d="M0,112.739a48.445,48.445,0,0,1,6.2-7.376A58.194,58.194,0,0,1,22.358,93.3a31.806,31.806,0,0,1,14.3-3.472,32.867,32.867,0,0,1,15.389,4.255A63.8,63.8,0,0,1,69.991,109c.821.95,1.6,1.937,2.362,2.936a2.052,2.052,0,0,1,0,2.747c-5.987,7.678-12.967,14.207-21.766,18.584a31.3,31.3,0,0,1-14.713,3.516,32.173,32.173,0,0,1-13.58-3.5A59.89,59.89,0,0,1,4.643,119.6c-1.364-1.48-2.615-3.064-3.9-4.613A12.278,12.278,0,0,1,0,113.877v-1.138m4.72.437c.591.707,1.008,1.223,1.443,1.723,4.959,5.689,10.5,10.678,17.262,14.162a28.385,28.385,0,0,0,12.489,3.448,28.893,28.893,0,0,0,14.992-4.227,60.961,60.961,0,0,0,15.809-13.409c.446-.512.872-1.041,1.292-1.543-.088-.134-.121-.2-.167-.252-.395-.473-.784-.951-1.189-1.415A59.682,59.682,0,0,0,49.567,97.611c-8.3-4.359-16.66-4.711-25.158-.562a50.374,50.374,0,0,0-12.628,8.871c-2.433,2.313-4.692,4.808-7.062,7.256" transform="translate(0 -72.753)" fill="#fff"/>
      <path id="Caminho_9984" data-name="Caminho 9984" d="M70.318,21.681a6.811,6.811,0,0,1,1.49.85c2.11,2.045,4.18,4.132,6.247,6.221a2.136,2.136,0,1,1-3,3.028q-3.133-3.1-6.235-6.233a2.1,2.1,0,0,1-.53-2.41,2.543,2.543,0,0,1,2.033-1.457" transform="translate(-55.161 -17.559)" fill="#fff"/>
      <path id="Caminho_9985" data-name="Caminho 9985" d="M261.324,33.071a2.322,2.322,0,0,1-2.175-1.237,1.933,1.933,0,0,1,.305-2.314q3.275-3.36,6.638-6.633a2.048,2.048,0,0,1,2.893.128,2.109,2.109,0,0,1-.041,3.008c-1.351,1.4-2.741,2.756-4.115,4.131-.721.721-1.407,1.482-2.177,2.144a7.04,7.04,0,0,1-1.329.774" transform="translate(-209.681 -18.099)" fill="#fff"/>
      <path id="Caminho_9986" data-name="Caminho 9986" d="M184.647,6.407c0,1.373.009,2.745,0,4.118a2.136,2.136,0,1,1-4.263.026q-.016-4.154,0-8.307a2.133,2.133,0,1,1,4.261-.026c.016,1.4,0,2.793,0,4.189" transform="translate(-146.082 0)" fill="#fff"/>
      <path id="Caminho_9987" data-name="Caminho 9987" d="M128,134.73a14.942,14.942,0,1,1-14.969,14.9A14.964,14.964,0,0,1,128,134.73m-.072,25.614A10.672,10.672,0,1,0,117.3,149.626a10.7,10.7,0,0,0,10.628,10.718" transform="translate(-91.544 -109.116)" fill="#fff"/>
      <path id="Caminho_9988" data-name="Caminho 9988" d="M170.756,186.058a6.4,6.4,0,1,1-6.359-6.407,6.419,6.419,0,0,1,6.359,6.407m-4.27,0a2.132,2.132,0,1,0-2.116,2.131,2.157,2.157,0,0,0,2.116-2.131" transform="translate(-127.924 -145.497)" fill="#fff"/>
    </g>
  </g>
</svg>
