<svg xmlns="http://www.w3.org/2000/svg" width="42.128" height="40.191" viewBox="0 0 42.128 40.191">
  <g id="welder" transform="translate(0 -11.77)">
    <g id="Grupo_777" data-name="Grupo 777" transform="translate(7.748 19.518)">
      <g id="Grupo_776" data-name="Grupo 776">
        <path id="Caminho_9953" data-name="Caminho 9953" d="M94.161,105.931v12.106h26.633V105.931Zm25.18,10.653H95.614v-9.2h23.728Z" transform="translate(-94.161 -105.931)" fill="#a8cf45"/>
      </g>
    </g>
    <g id="Grupo_779" data-name="Grupo 779" transform="translate(0 11.77)">
      <g id="Grupo_778" data-name="Grupo 778">
        <path id="Caminho_9954" data-name="Caminho 9954" d="M38.255,18.065v-6.3H3.874v6.3H0V31.139H3.874V45.424a6.545,6.545,0,0,0,6.537,6.537H31.717a6.545,6.545,0,0,0,6.537-6.537V31.139h3.874V18.065ZM3.874,29.687H1.453V19.518H3.874ZM36.8,45.424a5.09,5.09,0,0,1-5.084,5.084H10.411a5.09,5.09,0,0,1-5.084-5.084V17.1H36.8V45.424Zm0-29.78H5.327V13.223H36.8v2.421Zm3.874,14.043H38.255V19.518h2.421Z" transform="translate(0 -11.77)" fill="#a8cf45"/>
      </g>
    </g>
    <g id="Grupo_781" data-name="Grupo 781" transform="translate(7.506 33.561)">
      <g id="Grupo_780" data-name="Grupo 780">
        <rect id="Retângulo_704" data-name="Retângulo 704" width="27.117" height="1.453" fill="#a8cf45"/>
      </g>
    </g>
    <g id="Grupo_783" data-name="Grupo 783" transform="translate(7.264 43.972)">
      <g id="Grupo_782" data-name="Grupo 782">
        <path id="Caminho_9955" data-name="Caminho 9955" d="M89.729,404.58v-1.453H88.276v1.453a3.314,3.314,0,0,0,.467,1.584,3.406,3.406,0,0,0,3.165,1.563v-1.453C89.867,406.274,89.735,404.857,89.729,404.58Z" transform="translate(-88.276 -403.127)" fill="#a8cf45"/>
      </g>
    </g>
    <g id="Grupo_785" data-name="Grupo 785" transform="translate(31.233 43.972)">
      <g id="Grupo_784" data-name="Grupo 784">
        <path id="Caminho_9956" data-name="Caminho 9956" d="M381.765,403.126v1.446c-.006.284-.138,1.7-2.179,1.7v1.453a3.406,3.406,0,0,0,3.165-1.563,3.313,3.313,0,0,0,.467-1.584v-1.453Z" transform="translate(-379.586 -403.126)" fill="#a8cf45"/>
      </g>
    </g>
    <g id="Grupo_787" data-name="Grupo 787" transform="translate(10.653 22.423)">
      <g id="Grupo_786" data-name="Grupo 786">
        <path id="Caminho_9957" data-name="Caminho 9957" d="M129.471,141.241v3.632h1.453v-2.179h3.148v-1.453Z" transform="translate(-129.471 -141.241)" fill="#a8cf45"/>
      </g>
    </g>
  </g>
</svg>
