<svg xmlns="http://www.w3.org/2000/svg" width="17" height="16.336" viewBox="0 0 17 16.336">
  <g id="lupa" transform="translate(4.826 1229.925)">
    <path id="Caminho_9849" data-name="Caminho 9849" d="M6.92-1229.922a1.847,1.847,0,0,1-.213.021,7.009,7.009,0,0,0-3.771,1.395,7.26,7.26,0,0,0-1.382,1.395,6.957,6.957,0,0,0-1.342,3.541c-.008.094-.021.245-.029.333a6.065,6.065,0,0,0,.056,1.151,6.942,6.942,0,0,0,1.316,3.294,6.159,6.159,0,0,0,.666.765,6.7,6.7,0,0,0,1.857,1.331,6.978,6.978,0,0,0,2.369.675,9.816,9.816,0,0,0,1.4,0,7.294,7.294,0,0,0,1.475-.31,7.224,7.224,0,0,0,1.93-.98c.085-.062.092-.065.12-.047s.494.451,1.062.977c2.229,2.063,2.718,2.514,2.784,2.564a1.465,1.465,0,0,0,.415.2,1.022,1.022,0,0,0,.313.029,1.016,1.016,0,0,0,.53-.112,1.091,1.091,0,0,0,.327-.225,1.183,1.183,0,0,0,.261-.362,1.032,1.032,0,0,0,.112-.524,1.025,1.025,0,0,0-.118-.546c-.117-.238.154.023-3.065-2.953-.52-.482-.948-.884-.948-.892a1.716,1.716,0,0,1,.108-.194,8.669,8.669,0,0,0,.462-.938,7.018,7.018,0,0,0,.367-3.986,6.932,6.932,0,0,0-3.242-4.607,8.55,8.55,0,0,0-1.009-.5,7.3,7.3,0,0,0-2.542-.5A2.566,2.566,0,0,0,6.92-1229.922Zm.8,2.505a4.525,4.525,0,0,1,2.229.948c.081.064.233.2.338.3a4.447,4.447,0,0,1,1.231,2.116,4.158,4.158,0,0,1,.132,1.112,4.323,4.323,0,0,1-.4,1.833,4.65,4.65,0,0,1-1.515,1.832,4.577,4.577,0,0,1-1.967.784,3.318,3.318,0,0,1-.619.029,3.318,3.318,0,0,1-.619-.029,4.382,4.382,0,0,1-1.351-.422,4.14,4.14,0,0,1-.731-.444,4.507,4.507,0,0,1-1.772-3.036,5.543,5.543,0,0,1-.021-.906,4.534,4.534,0,0,1,2.916-3.868,4.749,4.749,0,0,1,1.231-.276A7.891,7.891,0,0,1,7.718-1227.417Z" transform="translate(-5)" fill="#a8cf45"/>
  </g>
</svg>
